<svg xmlns="http://www.w3.org/2000/svg" xmlns:xlink="http://www.w3.org/1999/xlink" viewBox="0 0 929.36 152.8"><defs><style>.cls-1{fill:url(#linear-gradient);}.cls-2{fill:url(#linear-gradient-2);}.cls-3{fill:url(#linear-gradient-3);}.cls-4{fill:url(#linear-gradient-4);}.cls-5{fill:url(#linear-gradient-5);}.cls-6{fill:url(#linear-gradient-6);}</style><linearGradient id="linear-gradient" x1="61.97" y1="2.47" x2="61.97" y2="150.22" gradientUnits="userSpaceOnUse"><stop offset="0" stop-color="#999"/><stop offset="0.39" stop-color="#6a6a6a"/><stop offset="1" stop-color="#1a1a1a"/></linearGradient><linearGradient id="linear-gradient-2" x1="200.86" y1="0" x2="200.86" y2="152.8" xlink:href="#linear-gradient"/><linearGradient id="linear-gradient-3" x1="354.8" y1="2.47" x2="354.8" y2="150.22" xlink:href="#linear-gradient"/><linearGradient id="linear-gradient-4" x1="530.31" y1="2.47" x2="530.31" y2="150.22" xlink:href="#linear-gradient"/><linearGradient id="linear-gradient-5" x1="705.11" y1="2.47" x2="705.11" y2="150.22" xlink:href="#linear-gradient"/><linearGradient id="linear-gradient-6" x1="862.91" y1="2.47" x2="862.91" y2="150.22" xlink:href="#linear-gradient"/></defs><g id="Layer_2" data-name="Layer 2"><g id="Layer_1-2" data-name="Layer 1"><path class="cls-1" d="M124,150.22H85.72l-23-38q-2.58-4.32-5-7.72A43.53,43.53,0,0,0,53,98.65,19.1,19.1,0,0,0,48,95a12.8,12.8,0,0,0-5.72-1.29h-9v56.56H0V2.47H52.75q53.79,0,53.79,40.19a41.65,41.65,0,0,1-2.37,14.27,39.71,39.71,0,0,1-6.7,11.79A42.34,42.34,0,0,1,87,77.79a54.36,54.36,0,0,1-13.65,6v.41a21.13,21.13,0,0,1,6.39,3.35,45.2,45.2,0,0,1,6,5.41,75.62,75.62,0,0,1,5.52,6.64c1.75,2.37,3.34,4.69,4.79,7ZM33.28,27.41V68.52H47.7q10.72,0,17.21-6.18a20.63,20.63,0,0,0,6.6-15.56q0-19.38-23.19-19.37Z"/><path class="cls-2" d="M200.19,152.8q-31.73,0-51.72-20.66t-20-53.83q0-35,20.3-56.67T202.56,0q31.63,0,51.16,20.71t19.53,54.61q0,34.83-20.25,56.15T200.19,152.8Zm1.45-124.16q-17.52,0-27.82,13.14T163.51,76.55q0,22,10.31,34.73t27,12.77q17.2,0,27.31-12.41t10.09-34.47q0-23-9.78-35.75T201.64,28.64Z"/><path class="cls-3" d="M427.69,150.22H391.42l-10.5-32.87H328.37L318,150.22H281.9L335.68,2.47h39.47ZM373.29,91.8,357.42,42.14A64.54,64.54,0,0,1,355,28.85h-.82a56.92,56.92,0,0,1-2.58,12.88L335.48,91.8Z"/><path class="cls-4" d="M614.49,150.22H581.62V61.82q0-14.32,1.24-31.63H582a156.92,156.92,0,0,1-4.64,19.58L542.78,150.22h-27.2L480.34,50.8q-1.44-4-4.63-20.61h-.93q1.34,21.84,1.34,38.33v81.7h-30V2.47h48.73l30.19,87.58a124,124,0,0,1,5.25,21.12h.62a211.26,211.26,0,0,1,5.88-21.32L567,2.47h47.5Z"/><path class="cls-5" d="M778,150.22H741.74l-10.51-32.87H678.68l-10.4,32.87H632.21L686,2.47h39.46ZM723.6,91.8,707.74,42.14a63.88,63.88,0,0,1-2.47-13.29h-.83a55.84,55.84,0,0,1-2.58,12.88L685.79,91.8Z"/><path class="cls-6" d="M929.36,150.22H895.77L834.88,57.39a136.44,136.44,0,0,1-7.42-12.26h-.41q.83,7.83.83,23.9v81.19H796.45V2.47h35.86l58.62,90q4,6.09,7.42,12.06h.41q-.82-5.16-.82-20.3V2.47h31.42Z"/></g></g></svg>