<svg xmlns="http://www.w3.org/2000/svg" xmlns:xlink="http://www.w3.org/1999/xlink" viewBox="0 0 245.21 160"><defs><style>.cls-1{fill:url(#linear-gradient);}.cls-2{fill:url(#linear-gradient-2);}</style><linearGradient id="linear-gradient" y1="80" x2="245.21" y2="80" gradientUnits="userSpaceOnUse"><stop offset="0" stop-color="#f48f20"/><stop offset="0" stop-color="#f7931e"/><stop offset="0.41" stop-color="#f36420"/><stop offset="1" stop-color="#ed1c24"/></linearGradient><linearGradient id="linear-gradient-2" y1="80" x2="245.21" y2="80" gradientUnits="userSpaceOnUse"><stop offset="0" stop-color="#f7931e"/><stop offset="1" stop-color="#c1272d"/></linearGradient></defs><g id="Layer_2" data-name="Layer 2"><g id="Layer_1-2" data-name="Layer 1"><path class="cls-1" d="M245.21,17c0,79-54.89,143-122.61,143a107,107,0,0,1-40.17-7.85C34.45,132.76,0,79.58,0,17c0-1.14,0-2.28,0-3.41A64.84,64.84,0,0,1,39.42,0c26.31,0,49.34,16.38,62,40.88a91.45,91.45,0,0,1,6.52,16.37c12.9,25.12,36.47,41.94,63.4,41.94,40.32,0,73.1-37.67,73.86-84.49C245.2,15.47,245.21,16.24,245.21,17Z"/><path class="cls-2" d="M39.42,0A64.84,64.84,0,0,0,0,13.6C0,14.73,0,15.87,0,17,0,79.58,34.45,132.76,82.43,152.15A107,107,0,0,0,122.6,160c67.72,0,122.61-64,122.61-143,0-.77,0-1.54,0-2.31-.76,46.82-33.54,84.49-73.86,84.49-26.93,0-50.5-16.82-63.4-41.94a91.45,91.45,0,0,0-6.52-16.37C88.76,16.38,65.73,0,39.42,0Z"/></g></g></svg>