<svg xmlns="http://www.w3.org/2000/svg" xmlns:xlink="http://www.w3.org/1999/xlink" viewBox="0 0 1229.26 160"><defs><style>.cls-1{fill:url(#linear-gradient);}.cls-2{fill:url(#linear-gradient-2);}.cls-3{fill:url(#linear-gradient-3);}.cls-4{fill:url(#linear-gradient-4);}.cls-5{fill:url(#linear-gradient-5);}.cls-6{fill:url(#linear-gradient-6);}.cls-7{fill:url(#linear-gradient-7);}.cls-8{fill:url(#linear-gradient-8);}</style><linearGradient id="linear-gradient" y1="80" x2="245.21" y2="80" gradientUnits="userSpaceOnUse"><stop offset="0" stop-color="#f48f20"/><stop offset="0" stop-color="#f7931e"/><stop offset="0.41" stop-color="#f36420"/><stop offset="1" stop-color="#ed1c24"/></linearGradient><linearGradient id="linear-gradient-2" y1="80" x2="245.21" y2="80" gradientUnits="userSpaceOnUse"><stop offset="0" stop-color="#f7931e"/><stop offset="1" stop-color="#c1272d"/></linearGradient><linearGradient id="linear-gradient-3" x1="361.87" y1="6.07" x2="361.87" y2="153.82" gradientUnits="userSpaceOnUse"><stop offset="0" stop-color="#999"/><stop offset="0.39" stop-color="#6a6a6a"/><stop offset="1" stop-color="#1a1a1a"/></linearGradient><linearGradient id="linear-gradient-4" x1="500.76" y1="3.6" x2="500.76" y2="156.4" xlink:href="#linear-gradient-3"/><linearGradient id="linear-gradient-5" x1="654.69" y1="6.07" x2="654.69" y2="153.82" xlink:href="#linear-gradient-3"/><linearGradient id="linear-gradient-6" x1="830.21" y1="6.07" x2="830.21" y2="153.82" xlink:href="#linear-gradient-3"/><linearGradient id="linear-gradient-7" x1="1005.01" y1="6.07" x2="1005.01" y2="153.82" xlink:href="#linear-gradient-3"/><linearGradient id="linear-gradient-8" x1="1162.8" y1="6.07" x2="1162.8" y2="153.82" xlink:href="#linear-gradient-3"/></defs><g id="Layer_2" data-name="Layer 2"><g id="Layer_1-2" data-name="Layer 1"><path class="cls-1" d="M245.21,17c0,79-54.89,143-122.61,143a107,107,0,0,1-40.17-7.85C34.45,132.76,0,79.58,0,17c0-1.14,0-2.28,0-3.41A64.84,64.84,0,0,1,39.42,0c26.31,0,49.34,16.38,62,40.88a91.45,91.45,0,0,1,6.52,16.37c12.9,25.12,36.47,41.94,63.4,41.94,40.32,0,73.1-37.67,73.86-84.49C245.2,15.47,245.21,16.24,245.21,17Z"/><path class="cls-2" d="M39.42,0A64.84,64.84,0,0,0,0,13.6C0,14.73,0,15.87,0,17,0,79.58,34.45,132.76,82.43,152.15A107,107,0,0,0,122.6,160c67.72,0,122.61-64,122.61-143,0-.77,0-1.54,0-2.31-.76,46.82-33.54,84.49-73.86,84.49-26.93,0-50.5-16.82-63.4-41.94a91.45,91.45,0,0,0-6.52-16.37C88.76,16.38,65.73,0,39.42,0Z"/><path class="cls-3" d="M423.85,153.82H385.62l-23-38q-2.56-4.32-4.94-7.72a42.77,42.77,0,0,0-4.79-5.82,19.08,19.08,0,0,0-5.05-3.71,12.8,12.8,0,0,0-5.72-1.29h-9v56.56H299.9V6.07h52.75q53.79,0,53.78,40.19a41.61,41.61,0,0,1-2.37,14.27,39.68,39.68,0,0,1-6.69,11.79,42.52,42.52,0,0,1-10.46,9.07,54.36,54.36,0,0,1-13.65,6v.41a21.36,21.36,0,0,1,6.39,3.35,45.2,45.2,0,0,1,6,5.41,75.53,75.53,0,0,1,5.51,6.64q2.63,3.55,4.79,7ZM333.18,31V72.12H347.6q10.71,0,17.21-6.18a20.66,20.66,0,0,0,6.59-15.56Q371.4,31,348.22,31Z"/><path class="cls-4" d="M500.09,156.4q-31.74,0-51.72-20.66t-20-53.83q0-35,20.3-56.67T502.46,3.6q31.63,0,51.16,20.71t19.52,54.61q0,34.83-20.24,56.15T500.09,156.4Zm1.44-124.16q-17.5,0-27.82,13.14t-10.3,34.77q0,22,10.3,34.73t27,12.77q17.2,0,27.3-12.41t10.1-34.47q0-23-9.79-35.75T501.53,32.24Z"/><path class="cls-5" d="M727.59,153.82H691.32L680.81,121H628.26l-10.4,32.86H581.8L635.58,6.07H675ZM673.19,95.4,657.32,45.74a64.54,64.54,0,0,1-2.47-13.29H654a56.35,56.35,0,0,1-2.57,12.88L635.37,95.4Z"/><path class="cls-6" d="M914.39,153.82H881.52V65.42q0-14.33,1.24-31.63h-.83a155.52,155.52,0,0,1-4.63,19.58L842.68,153.82h-27.2L780.24,54.4q-1.44-4-4.64-20.61h-.92Q776,55.63,776,72.12v81.7H746V6.07h48.74L825,93.65a124,124,0,0,1,5.25,21.12h.62a211.44,211.44,0,0,1,5.87-21.32L866.89,6.07h47.5Z"/><path class="cls-7" d="M1077.9,153.82h-36.26L1031.13,121H978.58l-10.41,32.86H932.11L985.89,6.07h39.47ZM1023.5,95.4l-15.87-49.66a65.22,65.22,0,0,1-2.47-13.29h-.82a56.37,56.37,0,0,1-2.58,12.88L985.69,95.4Z"/><path class="cls-8" d="M1229.26,153.82h-33.59L1134.78,61a134.07,134.07,0,0,1-7.42-12.26H1127q.83,7.83.82,23.9v81.19h-31.42V6.07h35.85L1190.83,96q4,6.09,7.42,12.06h.41q-.83-5.16-.83-20.3V6.07h31.43Z"/></g></g></svg>