<svg xmlns="http://www.w3.org/2000/svg" xmlns:xlink="http://www.w3.org/1999/xlink" viewBox="0 0 643.24 143.29"><defs><style>.cls-1{fill:url(#linear-gradient);}.cls-2{fill:url(#linear-gradient-2);}.cls-3{fill:url(#linear-gradient-3);}.cls-4{fill:url(#linear-gradient-4);}.cls-5{fill:url(#linear-gradient-5);}.cls-6{fill:url(#linear-gradient-6);}.cls-7{fill:url(#linear-gradient-7);}.cls-8{fill:url(#linear-gradient-8);}</style><linearGradient id="linear-gradient" x1="200.21" y1="71.65" x2="419.81" y2="71.65" gradientUnits="userSpaceOnUse"><stop offset="0" stop-color="#f48f20"/><stop offset="0" stop-color="#f7931e"/><stop offset="0.41" stop-color="#f36420"/><stop offset="1" stop-color="#ed1c24"/></linearGradient><linearGradient id="linear-gradient-2" x1="200.21" y1="71.65" x2="419.81" y2="71.65" gradientUnits="userSpaceOnUse"><stop offset="0" stop-color="#f7931e"/><stop offset="1" stop-color="#c1272d"/></linearGradient><linearGradient id="linear-gradient-3" x1="39.33" y1="15.13" x2="39.33" y2="124.86" gradientUnits="userSpaceOnUse"><stop offset="0" stop-color="#999"/><stop offset="0.39" stop-color="#6a6a6a"/><stop offset="1" stop-color="#1a1a1a"/></linearGradient><linearGradient id="linear-gradient-4" x1="138.43" y1="13.29" x2="138.43" y2="126.7" xlink:href="#linear-gradient-3"/><linearGradient id="linear-gradient-5" x1="248.01" y1="15.13" x2="248.01" y2="124.86" xlink:href="#linear-gradient-3"/><linearGradient id="linear-gradient-6" x1="368.91" y1="15.13" x2="368.91" y2="124.86" xlink:href="#linear-gradient-3"/><linearGradient id="linear-gradient-7" x1="489.82" y1="15.13" x2="489.82" y2="124.86" xlink:href="#linear-gradient-3"/><linearGradient id="linear-gradient-8" x1="599.01" y1="15.13" x2="599.01" y2="124.86" xlink:href="#linear-gradient-3"/></defs><g id="Layer_2" data-name="Layer 2"><g id="Layer_1-2" data-name="Layer 1"><path class="cls-1" d="M419.81,15.24c0,70.72-49.16,128-109.8,128a95.58,95.58,0,0,1-36-7c-43-17.37-73.82-65-73.82-121q0-1.54,0-3.06A58,58,0,0,1,235.51,0C259.07,0,279.7,14.67,291,36.61a81.93,81.93,0,0,1,5.84,14.66c11.55,22.5,32.66,37.56,56.78,37.56,36.11,0,65.47-33.74,66.15-75.66C419.81,13.86,419.81,14.54,419.81,15.24Z"/><path class="cls-2" d="M235.51,0a58,58,0,0,0-35.27,12.18q0,1.52,0,3.06c0,56,30.85,103.65,73.82,121a95.58,95.58,0,0,0,36,7c60.64,0,109.8-57.33,109.8-128,0-.7,0-1.38,0-2.07-.68,41.92-30,75.66-66.15,75.66-24.12,0-45.23-15.06-56.78-37.56A81.93,81.93,0,0,0,291,36.61C279.7,14.67,259.07,0,235.51,0Z"/><path class="cls-3" d="M78.67,124.86H63.36L45,94.1a68.38,68.38,0,0,0-4.9-7.31,27.75,27.75,0,0,0-4.86-4.93,16.89,16.89,0,0,0-5.36-2.8,22.23,22.23,0,0,0-6.46-.88H12.86v46.68H0V15.13H32.75A46.66,46.66,0,0,1,46,16.93,29.8,29.8,0,0,1,56.59,22.4a25.49,25.49,0,0,1,7,9.14,30.39,30.39,0,0,1,2.53,12.82,30.75,30.75,0,0,1-1.73,10.52,27.47,27.47,0,0,1-4.89,8.54,29.87,29.87,0,0,1-7.66,6.39A39.06,39.06,0,0,1,41.78,73.9v.31A22.52,22.52,0,0,1,46.56,77a26.33,26.33,0,0,1,3.87,3.71,50.37,50.37,0,0,1,3.63,4.86q1.8,2.72,4,6.31ZM12.86,26.76V66.55H30.3a26.45,26.45,0,0,0,8.92-1.45,20.67,20.67,0,0,0,7.08-4.17A18.84,18.84,0,0,0,51,54.27a22.16,22.16,0,0,0,1.69-8.84q0-8.79-5.7-13.73T30.46,26.76Z"/><path class="cls-4" d="M138,126.7q-23.34,0-37.38-15.38t-14-40q0-26.47,14.31-42.24t39-15.77q22.73,0,36.61,15.31t13.89,40q0,26.86-14.23,42.47T138,126.7Zm.92-101.78q-17.29,0-28.09,12.48T100,70.15q0,20.28,10.53,32.64T138,115.14q18.06,0,28.47-11.78t10.4-33q0-21.73-10.1-33.59T138.89,24.92Z"/><path class="cls-5" d="M296.83,124.86H282.6L271,94.1H224.44L213.5,124.86H199.19L241.27,15.13h13.32ZM266.76,82.55,249.54,35.79a45.76,45.76,0,0,1-1.69-7.34h-.3a41.09,41.09,0,0,1-1.76,7.34L228.72,82.55Z"/><path class="cls-6" d="M424.85,124.86H412.07V51.25q0-8.73,1.07-21.35h-.3a69.1,69.1,0,0,1-3.29,10.64l-37.5,84.32h-6.27L328.36,41.15a65.57,65.57,0,0,1-3.29-11.25h-.31q.62,6.59.61,21.5v73.46H313V15.13h17l33.67,76.52a96.67,96.67,0,0,1,5.05,13.16h.46q3.3-9,5.28-13.46l34.36-76.22h16.07Z"/><path class="cls-7" d="M538.64,124.86H524.41L512.77,94.1H466.25l-10.94,30.76H441L483.08,15.13H496.4ZM508.57,82.55,491.35,35.79a45.76,45.76,0,0,1-1.69-7.34h-.3a41.09,41.09,0,0,1-1.76,7.34L470.53,82.55Z"/><path class="cls-8" d="M643.24,124.86H627.48L571,37.4a36.4,36.4,0,0,1-3.52-6.89H567q.62,3.52.61,15.08v79.27H554.78V15.13h16.69l54.94,86.09c2.3,3.57,3.77,6,4.44,7.34h.3a116.23,116.23,0,0,1-.76-16.14V15.13h12.85Z"/></g></g></svg>